<?xml version="1.0" standalone="no"?>
<!DOCTYPE svg PUBLIC "-//W3C//DTD SVG 20010904//EN"
 "http://www.w3.org/TR/2001/REC-SVG-20010904/DTD/svg10.dtd">
<svg version="1.0" xmlns="http://www.w3.org/2000/svg"
 width="1620.000000pt" height="1620.000000pt" viewBox="0 0 1620.000000 1620.000000"
 preserveAspectRatio="xMidYMid meet">
<metadata>
Created by potrace 1.14, written by Peter Selinger 2001-2017
</metadata>
<g transform="translate(0.000000,1620.000000) scale(0.100000,-0.100000)"
fill="#000000" stroke="none">
<path d="M7940 15500 c-212 -138 -319 -207 -425 -276 -49 -32 -98 -63 -107
-69 -10 -5 -63 -39 -118 -74 l-100 -63 0 -127 c-1 -182 -11 -368 -26 -476 -10
-74 -13 -90 -29 -190 -30 -184 -125 -526 -170 -612 -8 -16 -15 -32 -15 -36 0
-25 -128 -282 -201 -405 -68 -113 -205 -311 -256 -368 -16 -17 -54 -61 -86
-98 -407 -463 -1042 -870 -1785 -1142 -216 -80 -605 -200 -772 -239 -70 -16
-210 -48 -229 -51 -12 -3 -51 -11 -85 -19 -33 -8 -72 -16 -86 -18 -51 -10
-106 -20 -125 -24 -45 -9 -123 -22 -160 -28 -22 -3 -67 -10 -100 -15 -33 -5
-78 -12 -100 -15 -22 -4 -51 -8 -65 -10 -14 -2 -50 -7 -80 -10 -30 -3 -66 -8
-80 -10 -14 -2 -54 -7 -90 -10 -36 -3 -76 -8 -90 -10 -14 -2 -68 -7 -120 -11
-52 -3 -111 -8 -130 -10 -19 -3 -159 -7 -310 -10 -151 -3 -280 -7 -285 -9 -18
-5 -10 -1353 9 -1595 3 -30 8 -100 11 -155 3 -55 8 -118 10 -140 3 -22 7 -71
10 -108 3 -37 7 -82 10 -100 2 -18 6 -57 10 -87 5 -50 10 -93 20 -175 14 -106
18 -140 31 -225 8 -52 17 -111 20 -130 10 -80 75 -417 109 -575 13 -58 17 -75
16 -80 0 -2 5 -19 10 -37 5 -18 11 -44 14 -58 16 -85 102 -404 155 -575 22
-71 42 -139 45 -149 23 -97 228 -657 290 -792 14 -30 25 -59 25 -64 0 -6 4
-18 10 -28 12 -22 80 -171 80 -176 0 -14 219 -461 282 -576 17 -30 47 -84 66
-120 53 -97 202 -351 223 -382 11 -14 19 -29 19 -33 0 -3 62 -99 137 -213 76
-114 140 -211 142 -217 2 -5 7 -12 11 -15 3 -3 22 -27 41 -55 42 -61 24 -37
181 -245 310 -414 615 -761 993 -1130 135 -132 220 -213 258 -246 12 -11 65
-58 117 -104 53 -47 120 -105 149 -130 30 -25 59 -50 65 -55 16 -14 127 -108
146 -122 8 -6 51 -41 95 -76 391 -311 837 -616 1299 -886 76 -45 140 -81 142
-81 2 0 27 -14 56 -31 246 -146 915 -456 1060 -492 20 -5 63 7 166 47 393 153
928 427 1382 709 139 86 460 295 470 307 3 3 41 30 85 60 44 30 87 60 95 67 8
6 96 72 195 147 99 74 192 145 207 158 35 31 55 47 108 88 25 19 59 47 75 61
17 14 83 72 148 127 350 299 791 736 1027 1016 14 16 32 37 40 46 8 9 37 43
65 75 27 33 52 62 55 65 3 3 50 61 105 130 246 307 446 588 660 925 121 191
137 219 287 485 67 119 287 556 337 670 18 41 41 93 51 116 93 206 283 699
325 844 3 8 23 74 46 145 64 203 124 416 163 580 20 83 39 161 43 175 8 31 6
24 33 145 12 55 24 111 26 125 7 39 16 84 28 139 3 11 8 41 12 68 3 26 8 57
10 68 21 111 34 188 39 225 3 25 8 56 10 70 9 48 14 85 20 140 3 30 7 66 10
80 2 14 7 48 10 75 3 28 8 64 10 80 3 17 7 60 10 96 2 37 7 82 9 100 9 67 23
263 42 609 7 124 13 1368 7 1386 -3 7 -64 12 -186 13 -224 2 -359 8 -547 26
-25 2 -78 7 -119 10 -41 4 -82 8 -90 10 -9 1 -45 6 -81 9 -84 9 -236 29 -300
41 -33 6 -96 15 -140 21 -19 2 -46 6 -60 9 -69 14 -232 45 -265 50 -11 1 -38
8 -60 13 -22 6 -51 13 -65 16 -81 15 -136 28 -225 52 -55 14 -116 30 -135 34
-19 4 -84 22 -145 40 -431 124 -867 298 -1215 485 -628 338 -1106 776 -1415
1296 -202 340 -348 765 -399 1164 -3 22 -7 58 -10 80 -12 82 -17 166 -23 375
-5 204 -7 216 -27 230 -11 8 -167 109 -346 224 -179 114 -369 237 -423 273
-54 35 -104 66 -110 69 -7 2 -82 -41 -167 -96z"/>
</g>
</svg>
