<svg id="Emblem" xmlns="http://www.w3.org/2000/svg" viewBox="0 0 360 360"><defs><style>.cls-1{fill:#9cd7d1;}.cls-2{fill:#ffce07;}.cls-3{fill:#99519f;}.cls-4{fill:#231f20;}</style></defs><g id="Shield_Background" data-name="Shield Background"><path class="cls-1" d="M180,360l-2.07-.75c-1.56-.56-38.45-14.11-75.78-49.07-34.49-32.31-75.6-89.69-75.6-179.58V108.79h6.11c.32,0,32.46-.17,64-11.91,40.85-15.22,61.56-42,61.56-79.49V14.06L180,0l21.81,14.06v3.33c0,37.53,20.71,64.27,61.56,79.49,31.51,11.74,63.65,11.91,64,11.91h6.11v21.8c0,89.89-41.11,147.27-75.6,179.58-37.33,35-74.22,48.51-75.78,49.07Z"/></g><g id="Shield"><path class="cls-2" d="M180,360l-2.07-.75c-1.56-.56-38.45-14.11-75.78-49.07-34.49-32.31-75.6-89.69-75.6-179.58V108.79h6.11c.32,0,32.46-.17,64-11.91,40.85-15.22,61.56-42,61.56-79.49V14.06L180,0l21.81,14.06v3.33c0,37.53,20.71,64.27,61.56,79.49,31.51,11.74,63.65,11.91,64,11.91h6.11v21.8c0,89.89-41.11,147.27-75.6,179.58-37.33,35-74.22,48.51-75.78,49.07ZM38.78,120.82v9.78c0,68.47,24,125.77,71.37,170.31,30.62,28.81,61.66,42.67,69.85,46,8.18-3.35,39.22-17.21,69.85-46,47.36-44.54,71.37-101.84,71.37-170.31v-9.78c-11.27-.59-36.39-2.95-61.83-12.37C214.93,92,190.88,61.7,189.63,20.76L180,14.55l-9.63,6.21c-1.25,40.94-25.3,71.22-69.76,87.69C75.17,117.87,50.05,120.23,38.78,120.82Z"/></g><g id="Stars"><path class="cls-3" d="M183.87,70.14c2-.7,4.3-1.64,10.52-1.64-6.22,0-8.52-.94-10.52-1.64.93-1.9,1.89-4.19,6.29-8.59-4.4,4.4-6.69,5.36-8.6,6.28-.7-2-1.64-4.3-1.64-10.52,0,6.22-.94,8.52-1.63,10.52-1.91-.92-4.2-1.88-8.6-6.28,4.4,4.4,5.36,6.69,6.28,8.59-2,.7-4.3,1.64-10.52,1.64,6.22,0,8.52.94,10.52,1.64-.92,1.9-1.88,4.19-6.28,8.59,4.4-4.4,6.69-5.36,8.6-6.28.69,2,1.63,4.3,1.63,10.52,0-6.22.94-8.52,1.64-10.52,1.91.92,4.2,1.88,8.6,6.28C185.76,74.33,184.8,72,183.87,70.14Zm-6.1-3.8Zm0,4.32Z"/><path class="cls-3" d="M102.14,128c2-.69,4.31-1.63,10.53-1.63-6.22,0-8.52-.94-10.53-1.64.93-1.91,1.89-4.2,6.29-8.6-4.4,4.4-6.69,5.36-8.6,6.29-.69-2-1.63-4.3-1.63-10.52,0,6.22-.94,8.52-1.64,10.52-1.91-.93-4.2-1.89-8.6-6.29,4.4,4.4,5.36,6.69,6.29,8.6-2,.7-4.3,1.64-10.53,1.64,6.23,0,8.53.94,10.53,1.63-.93,1.91-1.89,4.2-6.29,8.6,4.4-4.4,6.69-5.36,8.6-6.28.7,2,1.64,4.3,1.64,10.52,0-6.22.94-8.52,1.63-10.52,1.91.92,4.2,1.88,8.6,6.28C104,132.22,103.07,129.93,102.14,128ZM96,124.23Zm0,4.31Z"/><path class="cls-3" d="M267.28,128c2-.69,4.3-1.63,10.52-1.63-6.22,0-8.52-.94-10.52-1.64.92-1.91,1.88-4.2,6.28-8.6-4.4,4.4-6.69,5.36-8.59,6.29-.7-2-1.64-4.3-1.64-10.52,0,6.22-.94,8.52-1.64,10.52-1.9-.93-4.19-1.89-8.59-6.29,4.4,4.4,5.36,6.69,6.28,8.6-2,.7-4.3,1.64-10.52,1.64,6.22,0,8.52.94,10.52,1.63-.92,1.91-1.88,4.2-6.28,8.6,4.4-4.4,6.69-5.36,8.59-6.28.7,2,1.64,4.3,1.64,10.52,0-6.22.94-8.52,1.64-10.52,1.9.92,4.19,1.88,8.59,6.28C269.16,132.22,268.2,129.93,267.28,128Zm-6.11-3.79Zm0,4.31Z"/></g><g id="Keys"><g id="Full_Key" data-name="Full Key"><path class="cls-2" d="M115,287.09c9.8,9.74,24.3,10,33.73.55,10.36-10.37,8.38-25.74-5-39.16s-28.79-15.41-39.15-5c-9.43,9.44-9.2,23.94.55,33.73,2.34,2.37,6.44,1,10.58-.65C114,280.65,112.67,284.74,115,287.09Zm1.8-1.81c-1.55-1.55.85-6.84,2.16-10.13a1.47,1.47,0,0,0-.33-1.62,1.48,1.48,0,0,0-1.61-.33c-3.3,1.32-8.59,3.72-10.13,2.16-8.78-8.82-8.92-21.75-.56-30.12,9.52-9.52,23.28-7.23,35.55,5s14.56,26,5,35.54C138.59,294.2,125.66,294.05,116.83,285.28Z"/><path class="cls-2" d="M146.34,242l3.85,3.86,4.86-4.86,1.86,1.86,67.57-67.57-1.86-1.86,30.3-30.3-3.85-3.86-30.3,30.3-1.86-1.86-67.57,67.57,1.86,1.86Zm1.8,0,4.86-4.86-1.86-1.86,65.77-65.76,1.86,1.86,30.3-30.3,2.05,2-30.3,30.3,1.86,1.86-65.77,65.76-1.86-1.86-4.86,4.86Z"/><path class="cls-2" d="M104.19,288c15.19,15.19,35,20,50,5,11.71-11.71,10.35-32.3-2.62-47.36l-1.37,1.37L145.13,242l1.37-1.37c-15.05-13-35.64-14.33-47.36-2.61C84.18,253,89,272.81,104.19,288Zm1.8-1.81c-12.43-12.43-20.28-31.14-5-46.38,11.39-11.39,32.2-9.13,46.38,5.05s16.44,35,5,46.38C137.13,306.48,118.42,298.63,106,286.2Z"/><path class="cls-2" d="M226.27,171.07l7.58,7.57,2.14,2.14,3.79-3.78-2.14-2.14,1.77-1.78,10.07,10.08,3.79-3.79L243.2,169.3l1.77-1.77,7.18,7.18,3.79-3.79-7.19-7.18,1.77-1.77,5.81,5.81,3.79-3.79-5.81-5.81,1.77-1.77,10.08,10.07,3.78-3.79-10.07-10.07-7.57-7.57Zm1.77-.27,24.05-24.06,5.43,5.43-24,24.05Z"/><path class="cls-2" d="M252.52,139.68c-1.69-1.69-3.18-.68-3.18-.68l3.85,3.86A2.5,2.5,0,0,0,252.52,139.68Z"/></g><g id="Full_Key-2" data-name="Full Key"><path class="cls-2" d="M244.31,276.51c4.14,1.66,8.24,3,10.58.65,9.75-9.79,10-24.29.55-33.73-10.36-10.36-25.73-8.38-39.15,5s-15.41,28.79-5,39.16c9.43,9.43,23.93,9.19,33.73-.55C247.33,284.74,246,280.65,244.31,276.51Zm-31.26,9.32c-9.52-9.52-7.23-23.27,5-35.54s26-14.57,35.55-5c8.36,8.37,8.22,21.3-.56,30.12-1.54,1.56-6.83-.84-10.13-2.16a1.48,1.48,0,0,0-1.61.33,1.47,1.47,0,0,0-.33,1.62c1.31,3.29,3.71,8.58,2.16,10.13C234.34,294.05,221.41,294.2,213.05,285.83Z"/><path class="cls-2" d="M208.8,237.14l1.86-1.86-67.57-67.57-1.86,1.86-30.3-30.3-3.85,3.86,30.3,30.3-1.86,1.86,67.57,67.57L205,241l4.86,4.86,3.85-3.86Zm1,6.91L205,239.19l-1.86,1.86-65.77-65.76,1.86-1.86-30.3-30.3,2.05-2,30.3,30.3,1.86-1.86,65.77,65.76L207,237.14l4.86,4.86Z"/><path class="cls-2" d="M260.86,238c-11.72-11.72-32.31-10.36-47.36,2.61l1.37,1.37-5.06,5.06-1.37-1.37c-13,15.06-14.33,35.65-2.62,47.36,15,15,34.8,10.15,50-5S275.82,253,260.86,238Zm-53.23,53.23c-11.4-11.4-9.13-32.2,5-46.38s35-16.44,46.38-5.05c15.24,15.24,7.39,33.95-5,46.38S222.87,306.48,207.63,291.25Z"/><path class="cls-2" d="M107.7,145.05l-7.57,7.57L90.06,162.69l3.78,3.79,10.08-10.07,1.77,1.77L99.88,164l3.79,3.79,5.81-5.81,1.77,1.77-7.19,7.18,3.79,3.79,7.18-7.18,1.77,1.77-10.07,10.07,3.79,3.79,10.07-10.08,1.77,1.78L120.22,177l3.79,3.78,2.14-2.14,7.58-7.57Zm18.83,31.17-24-24.05,5.43-5.43L132,170.8Z"/><path class="cls-2" d="M107.48,139.68c1.69-1.69,3.18-.68,3.18-.68l-3.85,3.86A2.5,2.5,0,0,1,107.48,139.68Z"/></g></g><g id="Outer_Ring" data-name="Outer Ring"><path class="cls-2" d="M228.41,175.21l-2.78-2.78-1,1,1.86,1.86-8.87,8.87A45.47,45.47,0,0,1,205,196.79L193.4,208.37A51.07,51.07,0,0,0,228.41,175.21Z"/><path class="cls-2" d="M166.6,208.37,155,196.79a45.67,45.67,0,0,1-12.62-12.62l-8.88-8.88,1.86-1.86-1-1-2.78,2.78A51.07,51.07,0,0,0,166.6,208.37Z"/><path class="cls-2" d="M134.87,161.2c0-.67,0-1.34,0-2a45.17,45.17,0,0,1,90.34,0c0,.68,0,1.35,0,2l5.71-5.71a51,51,0,0,0-101.68,0Z"/></g><g id="Motto"><path class="cls-4" d="M1.9,330.06V330h12l.28,3.51H14l-.81-2.76q-1-.06-2.16-.06a16.58,16.58,0,0,0-3.51.3,34.63,34.63,0,0,0-.22,4.18c0,1,0,1.77.09,2.38,1.19.06,1.94.1,2.27.1a24,24,0,0,0,2.63-.15l.5-1.92H13v4.81h-.2l-.53-2a17.9,17.9,0,0,0-2.16-.11,24.74,24.74,0,0,0-2.71.13,15.81,15.81,0,0,0-.09,2.56c0,1.07,0,1.95,0,2.65s.07,1.3.13,1.8a12.71,12.71,0,0,0,3.61.42,21.57,21.57,0,0,0,2.17-.1l.9-2.72h.16l-.25,3.53H1.94v-.11l2.69-.4a13.56,13.56,0,0,0,.17-1.41c0-.63.09-1.34.13-2.13s.06-1.44.07-2,0-1,0-1.4v-2.84c0-.36,0-.87,0-1.54s0-1.36-.1-2.07-.11-1.43-.19-2.14Zm3.43.33V346h.78V330.39Z"/><path class="cls-4" d="M20,330h9.79c.6,0,1.14,0,1.64-.05s1.14-.09,1.92-.17l.26,3.66h-.14l-.83-2.66a12.47,12.47,0,0,0-2.15-.18,13.43,13.43,0,0,0-1.75.1A12.45,12.45,0,0,0,27,331c-.06.7-.11,1.37-.14,2s-.05,1.25-.06,1.81,0,.93,0,1.13v3.75c0,1,0,2.09.11,3.31s.15,2.2.24,2.93l2.79.42v.11H21.42v-.11l2.74-.42a43.3,43.3,0,0,0,.35-6v-4.08c0-.85,0-1.68-.05-2.5s-.1-1.6-.19-2.33a10.72,10.72,0,0,0-1.53-.29c-.58-.07-1.13-.12-1.65-.13a15,15,0,0,0-2.42.2l-.81,2.69H17.7l.25-3.7c.22,0,.55.05,1,.1A7.92,7.92,0,0,0,20,330Zm4.87.41V346h.76V330.36Z"/><path class="cls-4" d="M55,330.06l-3,.42a43.87,43.87,0,0,0,2,5.38l1.56,3.66c.35.83.87,1.9,1.55,3.2.27-.47.59-1.1,1-1.89s.69-1.53,1-2.22l1.76-4.18a39.32,39.32,0,0,0,1.43-3.95l-3.41-.42V330h6.7V330l-2.06.44a30.79,30.79,0,0,0-1.94,4.06l-3.83,9.11a33.68,33.68,0,0,0-1.23,3.28H56.3c-.44-1.24-.9-2.42-1.39-3.53L51.32,335a45.05,45.05,0,0,0-2.25-4.57l-2-.4V330H55Zm-5.3.33,6.47,15.11.39-.93-6-14.18Z"/><path class="cls-4" d="M68.12,330.06V330h12l.28,3.51h-.18l-.81-2.76c-.64,0-1.36-.06-2.15-.06a16.45,16.45,0,0,0-3.51.3,34.47,34.47,0,0,0-.23,4.18c0,1,0,1.77.09,2.38,1.19.06,2,.1,2.27.1a23.86,23.86,0,0,0,2.63-.15l.51-1.92h.19v4.81H79l-.53-2a18.18,18.18,0,0,0-2.17-.11,24.86,24.86,0,0,0-2.71.13,15.81,15.81,0,0,0-.09,2.56c0,1.07,0,1.95.06,2.65s.06,1.3.12,1.8a12.71,12.71,0,0,0,3.61.42,21.57,21.57,0,0,0,2.17-.1l.9-2.72h.16l-.25,3.53H68.16v-.11l2.69-.4a13.56,13.56,0,0,0,.17-1.41c0-.63.09-1.34.13-2.13s.06-1.44.08-2,0-1,0-1.4v-2.84c0-.36,0-.87,0-1.54s-.06-1.36-.11-2.07-.1-1.43-.19-2.14Zm3.43.33V346h.78V330.39Z"/><path class="cls-4" d="M86.94,339.74v-3.48c0-.9,0-1.92-.09-3.08s-.13-2.06-.22-2.72l-2.71-.4V330h7.41a6,6,0,0,1,3.37.84,4.7,4.7,0,0,1,2.23,3.77,3.8,3.8,0,0,1-.48,1.92,3.86,3.86,0,0,1-1.27,1.33,3.82,3.82,0,0,1-1.6.59v0a3.86,3.86,0,0,1,1.28.82,8.8,8.8,0,0,1,.9,1.11c.34.48.78,1.13,1.34,2l1.34,1.94a11.45,11.45,0,0,0,.94,1.14,2.73,2.73,0,0,0,1.87.95v.11h-2a3.51,3.51,0,0,1-2.62-1,8.12,8.12,0,0,1-.76-.91l-1.2-1.72c-.54-.8-1-1.46-1.37-2a9.16,9.16,0,0,0-.89-1.1,2.81,2.81,0,0,0-.88-.65,3.24,3.24,0,0,0-1.18-.17,6.16,6.16,0,0,0-1.11.08c0,.41-.07.86-.07,1.36v2.08a29.92,29.92,0,0,0,.28,3.49l2.81.4v.11H83.92v-.11l2.65-.4c.11-.76.21-1.83.27-3.2S86.94,340.37,86.94,339.74Zm.29-9.35V346H88V330.39Zm2,4.2v1.85c0,.65,0,1.26.07,1.82a8.22,8.22,0,0,0,1.27.07,4.74,4.74,0,0,0,2.33-.49,3,3,0,0,0,1.27-1.3,4,4,0,0,0,.38-1.74,4.16,4.16,0,0,0-.37-1.73,4.34,4.34,0,0,0-1-1.33,4.23,4.23,0,0,0-1.3-.85,3.57,3.57,0,0,0-1.4-.3,4.6,4.6,0,0,0-1,.09c-.07.44-.13,1.06-.19,1.87S89.19,334,89.19,334.59Zm1.13-4.39v.11a4.63,4.63,0,0,1,2.59.75,4.37,4.37,0,0,1,1.52,1.75,5,5,0,0,1,.47,2.06,3.4,3.4,0,0,1-2,3.26l.06,0a3.41,3.41,0,0,0,1.91-1.25,3.6,3.6,0,0,0,.75-2.29,4.29,4.29,0,0,0-.41-1.88,4,4,0,0,0-1.1-1.4,4.81,4.81,0,0,0-1.55-.86,5.19,5.19,0,0,0-1.73-.29Zm2.93,10,2.45,3.56a8.78,8.78,0,0,0,1.57,1.79,2.62,2.62,0,0,0,1.63.54V346c-.6-.17-1.36-.94-2.3-2.29l-2-2.82a7.51,7.51,0,0,0-1.18-1.4,2.81,2.81,0,0,0-1.36-.63l0,.09A4.08,4.08,0,0,1,93.25,340.18Z"/><path class="cls-4" d="M112.51,346.47H104v-.11l2.76-.42c.12-.94.22-2.08.28-3.4s.1-2.63.1-3.9v-1.9a46.18,46.18,0,0,0-.34-6.28l-2.8-.4V330h8.53v.11l-2.82.4c-.08.72-.14,1.39-.18,2s-.07,1.3-.1,2.14,0,1.63,0,2.36v2.5c0,.46,0,1.21,0,2.25s.07,1.92.13,2.65.11,1.26.16,1.62l2.8.4Zm-5.09-16.08V346h.79V330.39Z"/><path class="cls-4" d="M117.54,330h9.8c.59,0,1.14,0,1.64-.05s1.13-.09,1.91-.17l.26,3.66H131l-.84-2.66a12.36,12.36,0,0,0-2.14-.18,13.43,13.43,0,0,0-1.75.1,12.16,12.16,0,0,0-1.7.34c-.06.7-.11,1.37-.14,2s0,1.25-.07,1.81,0,.93,0,1.13v3.75c0,1,0,2.09.1,3.31s.15,2.2.25,2.93l2.79.42v.11H119v-.11l2.74-.42a44.9,44.9,0,0,0,.35-6v-4.08c0-.85,0-1.68-.06-2.5s-.1-1.6-.19-2.33a10.3,10.3,0,0,0-1.52-.29c-.58-.07-1.13-.12-1.65-.13a15.13,15.13,0,0,0-2.43.2l-.81,2.69h-.16l.25-3.7c.23,0,.56.05,1,.1A8.06,8.06,0,0,0,117.54,330Zm4.88.41V346h.76V330.36Z"/><path class="cls-4" d="M142.27,329.78l4.88,11.66a42.87,42.87,0,0,0,2.22,4.52l1.87.4v.11h-8v-.11l3.07-.4a14,14,0,0,0-.62-2.43,15,15,0,0,0-1-2.29h-7.08c-.3.76-.54,1.39-.73,1.88s-.36,1-.53,1.52A8.39,8.39,0,0,0,136,346l3,.4v.11h-6.3v-.11l2.07-.4a21,21,0,0,0,1.39-2.89l5.23-13.29Zm-1.2,3.17c-.2.4-.47,1-.81,1.75s-.63,1.48-.9,2.15-.56,1.39-.85,2.14-.49,1.26-.59,1.5c.45.06,1,.1,1.55.12s1.16,0,1.69,0a28.07,28.07,0,0,0,3.24-.16c-.29-.85-.77-2.06-1.46-3.63S141.64,334,141.07,333Zm.18-.95,5.86,14h.75l-6.24-15Z"/><path class="cls-4" d="M154.43,342.52l.86,2.77a6.88,6.88,0,0,0,1.51.48,6.66,6.66,0,0,0,1.49.17,3.93,3.93,0,0,0,1.55-.3,3.31,3.31,0,0,0,1.15-.74,3.17,3.17,0,0,0,.69-1,3,3,0,0,0,.23-1.11,2.59,2.59,0,0,0-.75-1.89,18,18,0,0,0-2.54-2,18.63,18.63,0,0,1-2.58-2,5.35,5.35,0,0,1-1-1.43,3.6,3.6,0,0,1-.34-1.59,4,4,0,0,1,.53-1.93,4.21,4.21,0,0,1,1.64-1.6,5.39,5.39,0,0,1,2.72-.64c.48,0,1,0,1.55.08s.93.07,1.14.07l.51,0,.38,0,.3,0,.07,3.86h-.15l-.71-2.61a7,7,0,0,0-2.73-.69,4.12,4.12,0,0,0-1.75.37,3,3,0,0,0-1.2,1,2.53,2.53,0,0,0-.43,1.43,2.3,2.3,0,0,0,.58,1.53,7,7,0,0,0,1.57,1.36c.67.45,1.38.92,2.15,1.41a11.68,11.68,0,0,1,1.83,1.44A4.23,4.23,0,0,1,164,342a4.58,4.58,0,0,1-.52,2.05,4.34,4.34,0,0,1-1.75,1.79,6.14,6.14,0,0,1-3.18.73c-.46,0-1,0-1.67-.08s-1.15-.08-1.45-.08h-.34l-.36,0-.3,0-.18-4ZM160,330h-.36a5.29,5.29,0,0,0-2.29.5,4,4,0,0,0-1.66,1.41,3.59,3.59,0,0,0-.61,2.06,3.79,3.79,0,0,0,1.25,2.69,12.19,12.19,0,0,0,1,.89c.32.24.81.58,1.45,1s1.17.8,1.56,1.08a9.59,9.59,0,0,1,1,.81,3.13,3.13,0,0,1,1,2.27,3.23,3.23,0,0,1-.47,1.65,3.62,3.62,0,0,1-1.36,1.3,4.08,4.08,0,0,1-2.08.51v.13a5,5,0,0,0,2.46-.49,4.05,4.05,0,0,0,1.64-1.4,3.21,3.21,0,0,0,.57-1.79,3.8,3.8,0,0,0-.26-1.46,4.22,4.22,0,0,0-.94-1.34,11.68,11.68,0,0,0-1.43-1.1l-2.07-1.42a13.62,13.62,0,0,1-1.54-1.18,3.56,3.56,0,0,1-1.18-2.59,3.27,3.27,0,0,1,1.07-2.31,4.64,4.64,0,0,1,3.25-1.13Z"/><path class="cls-4" d="M177.91,329.9h7.83a9.92,9.92,0,0,1,2.95.35,4.35,4.35,0,0,1,1.75,1,3.93,3.93,0,0,1,.88,1.42,4.86,4.86,0,0,1,.31,1.73,4.62,4.62,0,0,1-.69,2.46,5.11,5.11,0,0,1-1.95,1.82,5.89,5.89,0,0,1-2.88.68,11.69,11.69,0,0,1-2.31-.2v-.11l.72,0a6,6,0,0,0,2.34-.44,3.82,3.82,0,0,0,1.74-1.35,3.92,3.92,0,0,0,.65-2.31,5.16,5.16,0,0,0-1-3,3.4,3.4,0,0,0-3-1.42,7.09,7.09,0,0,0-1.68.18c-.06.3-.11,1-.17,2.24s-.09,2-.09,2.52v5.38c0,.23,0,.74,0,1.53s.07,1.48.11,2.06a10.15,10.15,0,0,0,.17,1.46l2.82.41-.13.14h-8.45l0-.16,2.74-.39c.08-.64.14-1.31.19-2s.08-1.56.12-2.56.05-1.74.05-2.23v-2.71q0-1.43-.09-3.21c-.06-1.18-.14-2.11-.23-2.77l-2.8-.39Zm3.44.43V346h.79V330.33Zm4.53-.16h-.41v.12a4.19,4.19,0,0,1,2.23.72,4.27,4.27,0,0,1,1.44,1.71,5.39,5.39,0,0,1,.48,2.26,4.11,4.11,0,0,1-.58,2.28,3.63,3.63,0,0,1-1.4,1.31,4.55,4.55,0,0,1-1.62.48v.14h.21a4.78,4.78,0,0,0,1.6-.35,4,4,0,0,0,1.79-1.32,4.09,4.09,0,0,0,.82-2.72,5.65,5.65,0,0,0-.44-2.14,4,4,0,0,0-1.48-1.78A4.59,4.59,0,0,0,185.88,330.17Z"/><path class="cls-4" d="M197.76,339.74v-3.48c0-.9,0-1.92-.09-3.08s-.14-2.06-.23-2.72l-2.71-.4V330h7.42a6,6,0,0,1,3.37.84,4.72,4.72,0,0,1,2.22,3.77,3.85,3.85,0,0,1-3.35,3.84v0a3.86,3.86,0,0,1,1.28.82,8.8,8.8,0,0,1,.9,1.11c.34.48.79,1.13,1.34,2s1,1.47,1.35,1.94a13.12,13.12,0,0,0,.93,1.14,2.75,2.75,0,0,0,1.88.95v.11h-2a3.47,3.47,0,0,1-2.61-1,7.2,7.2,0,0,1-.77-.91c-.25-.35-.65-.93-1.19-1.72s-1-1.46-1.38-2a8.26,8.26,0,0,0-.89-1.1,2.7,2.7,0,0,0-.88-.65,3.24,3.24,0,0,0-1.18-.17,6.33,6.33,0,0,0-1.11.08c0,.41-.06.86-.06,1.36v2.08a27.86,27.86,0,0,0,.28,3.49l2.81.4v.11h-8.39v-.11l2.66-.4c.11-.76.2-1.83.27-3.2S197.76,340.37,197.76,339.74Zm.28-9.35V346h.81V330.39Zm2,4.2v1.85c0,.65,0,1.26.07,1.82a8.28,8.28,0,0,0,1.28.07,4.77,4.77,0,0,0,2.33-.49,3,3,0,0,0,1.26-1.3,4.2,4.2,0,0,0,0-3.47,4.35,4.35,0,0,0-2.24-2.18,3.65,3.65,0,0,0-1.41-.3,4.6,4.6,0,0,0-1,.09c-.06.44-.13,1.06-.18,1.87S200,334,200,334.59Zm1.13-4.39v.11a4.61,4.61,0,0,1,2.59.75,4.29,4.29,0,0,1,1.52,1.75,4.89,4.89,0,0,1,.47,2.06,3.4,3.4,0,0,1-2,3.26l.07,0a3.42,3.42,0,0,0,1.9-1.25,3.6,3.6,0,0,0,.75-2.29,4.29,4.29,0,0,0-.41-1.88,4,4,0,0,0-1.1-1.4,4.81,4.81,0,0,0-1.55-.86,5.19,5.19,0,0,0-1.73-.29Zm2.94,10,2.44,3.56a8.78,8.78,0,0,0,1.57,1.79,2.62,2.62,0,0,0,1.63.54V346c-.6-.17-1.36-.94-2.29-2.29l-2-2.82a7.15,7.15,0,0,0-1.18-1.4,2.81,2.81,0,0,0-1.36-.63l0,.09A4.22,4.22,0,0,1,204.07,340.18Z"/><path class="cls-4" d="M224.26,329.78l4.89,11.66a42.77,42.77,0,0,0,2.21,4.52l1.88.4v.11h-8v-.11l3.07-.4a15.52,15.52,0,0,0-1.64-4.72h-7.07c-.3.76-.55,1.39-.73,1.88s-.36,1-.53,1.52A8.39,8.39,0,0,0,218,346l3,.4v.11h-6.31v-.11l2.08-.4a22.2,22.2,0,0,0,1.39-2.89l5.22-13.29ZM223.07,333c-.2.4-.47,1-.81,1.75s-.64,1.48-.91,2.15-.55,1.39-.84,2.14-.49,1.26-.59,1.5c.44.06,1,.1,1.55.12s1.15,0,1.69,0a28.2,28.2,0,0,0,3.24-.16c-.29-.85-.77-2.06-1.46-3.63S223.63,334,223.07,333Zm.18-.95,5.86,14h.75l-6.24-15Z"/><path class="cls-4" d="M235.73,330.06V330h12l.28,3.51h-.18L247,330.7c-.63,0-1.35-.06-2.15-.06a16.58,16.58,0,0,0-3.51.3,34.47,34.47,0,0,0-.23,4.18c0,1,0,1.77.09,2.38,1.19.06,2,.1,2.27.1a23.86,23.86,0,0,0,2.63-.15l.51-1.92h.19v4.81h-.19l-.53-2a18.07,18.07,0,0,0-2.17-.11,25,25,0,0,0-2.71.13,18.47,18.47,0,0,0-.09,2.56c0,1.07,0,1.95.06,2.65s.06,1.3.12,1.8a12.79,12.79,0,0,0,3.62.42,21.35,21.35,0,0,0,2.16-.1l.91-2.72h.15l-.24,3.53H235.76v-.11l2.7-.4a14.19,14.19,0,0,0,.16-1.41c0-.63.09-1.34.13-2.13s.07-1.44.08-2,0-1,0-1.4v-2.84c0-.36,0-.87,0-1.54s-.06-1.36-.1-2.07-.11-1.43-.19-2.14Zm3.43.33V346h.78V330.39Z"/><path class="cls-4" d="M259.22,330.06l-3,.42a45.59,45.59,0,0,0,2,5.38l1.57,3.66c.34.83.86,1.9,1.54,3.2.28-.47.6-1.1,1-1.89s.7-1.53,1-2.22l1.76-4.18c.68-1.68,1.16-3,1.43-3.95l-3.42-.42V330h6.7V330l-2,.44a30.79,30.79,0,0,0-1.94,4.06L262,343.65a33.68,33.68,0,0,0-1.23,3.28h-.16c-.43-1.24-.9-2.42-1.38-3.53L255.59,335a45.12,45.12,0,0,0-2.26-4.57l-2-.4V330h7.88Zm-5.29.33,6.46,15.11.4-.93-6.05-14.18Z"/><path class="cls-4" d="M278.56,329.78l4.89,11.66a42.77,42.77,0,0,0,2.21,4.52l1.87.4v.11h-8v-.11l3.07-.4a15.15,15.15,0,0,0-1.63-4.72h-7.08c-.3.76-.54,1.39-.73,1.88s-.36,1-.53,1.52a8.39,8.39,0,0,0-.33,1.32l3,.4v.11H269v-.11l2.08-.4a22.2,22.2,0,0,0,1.38-2.89l5.23-13.29Zm-1.2,3.17c-.2.4-.47,1-.8,1.75s-.64,1.48-.91,2.15L274.8,339l-.58,1.5c.44.06,1,.1,1.55.12s1.15,0,1.68,0a28.07,28.07,0,0,0,3.24-.16c-.28-.85-.77-2.06-1.45-3.63S277.93,334,277.36,333Zm.18-.95,5.86,14h.76l-6.24-15Z"/><path class="cls-4" d="M290.21,330.06V330h8.54v.11l-2.8.4c-.1.72-.18,1.71-.25,3s-.1,2.32-.1,3.24v4.85c0,1.17.06,2.38.18,3.65a13.29,13.29,0,0,0,4,.61,13,13,0,0,0,1.83-.12,7.5,7.5,0,0,0,1.17-.21l1.18-3.08h.17l-.53,4.12H290.19v-.11l2.7-.4a12.36,12.36,0,0,0,.23-1.93c.06-.92.12-1.88.15-2.87s.06-1.68.06-2.08v-2.85c0-.62,0-1.34-.05-2.15s-.06-1.51-.1-2.12a13.77,13.77,0,0,0-.17-1.5Zm3.42.3V346h.79V330.36Z"/><path class="cls-4" d="M306.78,330.06V330h12l.28,3.51h-.18l-.81-2.76q-1-.06-2.16-.06a16.58,16.58,0,0,0-3.51.3,34.63,34.63,0,0,0-.22,4.18c0,1,0,1.77.09,2.38,1.19.06,1.94.1,2.27.1a23.68,23.68,0,0,0,2.62-.15l.51-1.92h.19v4.81h-.19l-.53-2a17.9,17.9,0,0,0-2.16-.11,24.74,24.74,0,0,0-2.71.13,15.81,15.81,0,0,0-.09,2.56c0,1.07,0,1.95.05,2.65s.07,1.3.13,1.8a12.71,12.71,0,0,0,3.61.42,21.57,21.57,0,0,0,2.17-.1l.9-2.72h.16l-.25,3.53H306.81v-.11l2.7-.4a14.19,14.19,0,0,0,.16-1.41c.05-.63.1-1.34.13-2.13s.07-1.44.08-2,0-1,0-1.4v-2.84c0-.36,0-.87,0-1.54s-.05-1.36-.1-2.07-.11-1.43-.19-2.14Zm3.43.33V346H311V330.39Z"/><path class="cls-4" d="M332,329.78l4.88,11.66a42.77,42.77,0,0,0,2.21,4.52l1.88.4v.11h-8v-.11l3.07-.4a15.52,15.52,0,0,0-1.64-4.72h-7.07c-.3.76-.55,1.39-.73,1.88s-.36,1-.53,1.52a8.39,8.39,0,0,0-.33,1.32l2.95.4v.11h-6.3v-.11l2.07-.4a21,21,0,0,0,1.39-2.89l5.23-13.29Zm-1.2,3.17c-.2.4-.47,1-.81,1.75s-.63,1.48-.9,2.15-.56,1.39-.85,2.14-.49,1.26-.59,1.5c.45.06,1,.1,1.55.12s1.16,0,1.69,0a28.07,28.07,0,0,0,3.24-.16c-.29-.85-.77-2.06-1.46-3.63S331.34,334,330.78,333ZM331,332l5.86,14h.75l-6.24-15Z"/><path class="cls-4" d="M344.49,330h9.79c.6,0,1.14,0,1.64-.05s1.14-.09,1.92-.17l.26,3.66H358l-.83-2.66a12.47,12.47,0,0,0-2.15-.18,13.43,13.43,0,0,0-1.75.1,12.45,12.45,0,0,0-1.7.34c-.06.7-.1,1.37-.13,2s-.06,1.25-.07,1.81,0,.93,0,1.13v3.75c0,1,0,2.09.1,3.31s.15,2.2.25,2.93l2.78.42v.11h-8.52v-.11l2.74-.42a43.3,43.3,0,0,0,.35-6v-4.08c0-.85,0-1.68-.05-2.5s-.1-1.6-.19-2.33a10.72,10.72,0,0,0-1.53-.29c-.58-.07-1.13-.12-1.64-.13a15,15,0,0,0-2.43.2l-.81,2.69h-.16l.25-3.7c.22,0,.55.05,1,.1A7.92,7.92,0,0,0,344.49,330Zm4.87.41V346h.76V330.36Z"/></g><g id="Keyhole_New" data-name="Keyhole New"><path class="cls-2" d="M180.08,140.54a18.64,18.64,0,1,0,18.64,18.64A18.64,18.64,0,0,0,180.08,140.54Zm0,35.16a16.52,16.52,0,1,1,16.51-16.52A16.53,16.53,0,0,1,180.08,175.7Z"/><path class="cls-3" d="M186.57,186.88A28.48,28.48,0,0,0,180,130.7h0a28.48,28.48,0,0,0-6.57,56.18s3.28.63,3.28,2.26c0,1.07.15,3.18-3.52,3.18-.23,6.48-1.1,24.48-1.1,24.48s2.93,1.68,3.57,2.84c.75,1.35.9,6.16.9,6.16h-4.87l-.26,5.82s0,5.19,8.57,5.22h0c8.57,0,8.57-5.22,8.57-5.22l-.26-5.82h-4.87s.15-4.81.9-6.16c.64-1.16,3.57-2.84,3.57-2.84s-.87-18-1.09-24.48c-3.68,0-3.53-2.11-3.53-3.18C183.29,187.51,186.57,186.88,186.57,186.88ZM180,185.54a26.36,26.36,0,1,1,26.28-26.36A26.35,26.35,0,0,1,180,185.54Z"/></g><g id="I"><path class="cls-4" d="M92.63,90.91H56.45v-.47l11.68-1.77q.81-6,1.22-14.43t.4-16.53v-8A200.88,200.88,0,0,0,68.32,23L56.45,21.34v-.48H92.63v.48L80.66,23q-.52,4.65-.76,8.4c-.16,2.51-.31,5.54-.43,9.09s-.19,6.9-.19,10V61.1q0,2.92.21,9.55c.14,4.42.34,8.16.57,11.22s.47,5.36.7,6.89l11.87,1.68ZM71,22.73V89.05h3.35V22.73Z"/></g><g id="R"><path class="cls-4" d="M280.85,62.4V47.61q0-5.7-.38-13t-1-11.56L268,21.34v-.48h31.44q8.94,0,14.28,3.56a20,20,0,0,1,9.45,16,15.92,15.92,0,0,1-2.05,8.11,16.13,16.13,0,0,1-5.39,5.67A15.73,15.73,0,0,1,309,56.7v.19a15.71,15.71,0,0,1,5.41,3.45,38.19,38.19,0,0,1,3.83,4.71q2.14,3,5.69,8.3t5.69,8.23a44.3,44.3,0,0,0,4,4.84c2.68,2.68,5.32,4,7.94,4v.47H333.2q-7,0-11.1-4.21a31.78,31.78,0,0,1-3.23-3.85q-1.61-2.22-5.07-7.3T308,67.18a42,42,0,0,0-3.75-4.69,12.26,12.26,0,0,0-3.76-2.75,13.92,13.92,0,0,0-5-.69,25.68,25.68,0,0,0-4.69.33,52.62,52.62,0,0,0-.29,5.74V74a119.62,119.62,0,0,0,1.2,14.78l11.91,1.68v.47H268v-.47l11.25-1.68c.47-3.22.86-7.75,1.14-13.59S280.85,65.07,280.85,62.4Zm1.2-39.67V89.05h3.45V22.73Zm8.33,17.8v7.84c0,2.78.09,5.36.28,7.76a38.72,38.72,0,0,0,5.41.28,20.18,20.18,0,0,0,9.88-2.1,12.4,12.4,0,0,0,5.36-5.48,17,17,0,0,0,1.6-7.39,17.17,17.17,0,0,0-1.55-7.33,18,18,0,0,0-9.52-9.25,15.37,15.37,0,0,0-6-1.27,19.65,19.65,0,0,0-4.35.38q-.43,2.78-.8,7.94T290.38,40.53Zm4.78-18.62v.48a19.82,19.82,0,0,1,11,3.18A18.19,18.19,0,0,1,312.58,33a20.87,20.87,0,0,1,2,8.71q0,9.57-8.33,13.83l.29.19a14.58,14.58,0,0,0,8.06-5.31,15.3,15.3,0,0,0,3.19-9.71,18.06,18.06,0,0,0-1.73-8,17.36,17.36,0,0,0-4.66-6,21.49,21.49,0,0,0-6.58-3.63,22.53,22.53,0,0,0-7.32-1.25ZM307.6,64.26,318,79.33a35.9,35.9,0,0,0,6.65,7.59,11.12,11.12,0,0,0,6.89,2.32v-.48q-3.78-1.1-9.71-9.71l-8.33-12a30.6,30.6,0,0,0-5-5.93,12.28,12.28,0,0,0-5.74-2.68l-.19.38A17.78,17.78,0,0,1,307.6,64.26Z"/></g></svg>